<svg width="800" height="450" viewBox="0 0 800 450" xmlns="http://www.w3.org/2000/svg">
  <defs>
    <linearGradient id="bg" x1="0%" y1="0%" x2="100%" y2="100%">
      <stop offset="0%" style="stop-color:#0d1117"/>
      <stop offset="100%" style="stop-color:#1a2332"/>
    </linearGradient>
    <linearGradient id="accent" x1="0%" y1="0%" x2="100%" y2="100%">
      <stop offset="0%" style="stop-color:#3B82F6"/>
      <stop offset="100%" style="stop-color:#6366F1"/>
    </linearGradient>
  </defs>
  <rect width="800" height="450" fill="url(#bg)"/>
  <!-- Browser mockup -->
  <rect x="180" y="100" width="440" height="270" rx="10" fill="#1e2433" stroke="#ffffff15" stroke-width="1"/>
  <rect x="180" y="100" width="440" height="32" rx="10" fill="#2a3040"/>
  <rect x="180" y="120" width="440" height="12" fill="#2a3040"/>
  <circle cx="200" cy="116" r="5" fill="#FF5F57"/>
  <circle cx="216" cy="116" r="5" fill="#FEBC2E"/>
  <circle cx="232" cy="116" r="5" fill="#28C840"/>
  <rect x="250" y="109" width="260" height="14" rx="7" fill="#ffffff10"/>
  <!-- Page content mockup -->
  <rect x="200" y="145" width="400" height="22" rx="3" fill="url(#accent)" opacity="0.8"/>
  <rect x="220" y="177" width="360" height="8" rx="2" fill="#ffffff20"/>
  <rect x="240" y="193" width="320" height="8" rx="2" fill="#ffffff15"/>
  <rect x="260" y="209" width="280" height="8" rx="2" fill="#ffffff10"/>
  <rect x="310" y="230" width="80" height="24" rx="12" fill="url(#accent)" opacity="0.9"/>
  <rect x="405" y="230" width="80" height="24" rx="12" fill="#ffffff15"/>
  <!-- Sparkle icon -->
  <circle cx="400" cy="185" r="0" fill="none"/>
  <text x="400" y="285" text-anchor="middle" font-family="system-ui, -apple-system, sans-serif" font-size="22" font-weight="700" fill="#ffffff">AI Landing Page Builder</text>
  <text x="400" y="315" text-anchor="middle" font-family="system-ui, -apple-system, sans-serif" font-size="13" fill="#ffffff80">Next.js · GPT-4 · Tailwind CSS</text>
  <rect x="330" y="338" width="140" height="28" rx="14" fill="#3B82F625" stroke="#6366F160" stroke-width="1"/>
  <text x="400" y="357" text-anchor="middle" font-family="system-ui, -apple-system, sans-serif" font-size="12" font-weight="600" fill="#3B82F6">Website</text>
</svg>
