<svg width="800" height="450" viewBox="0 0 800 450" xmlns="http://www.w3.org/2000/svg">
  <defs>
    <linearGradient id="bg" x1="0%" y1="0%" x2="100%" y2="100%">
      <stop offset="0%" style="stop-color:#0d1117"/>
      <stop offset="100%" style="stop-color:#1a2332"/>
    </linearGradient>
    <linearGradient id="accent" x1="0%" y1="0%" x2="100%" y2="100%">
      <stop offset="0%" style="stop-color:#2AABEE"/>
      <stop offset="100%" style="stop-color:#0EA5E9"/>
    </linearGradient>
  </defs>
  <rect width="800" height="450" fill="url(#bg)"/>
  <line x1="0" y1="112" x2="800" y2="112" stroke="#ffffff08" stroke-width="1"/>
  <line x1="0" y1="337" x2="800" y2="337" stroke="#ffffff08" stroke-width="1"/>
  <line x1="200" y1="0" x2="200" y2="450" stroke="#ffffff08" stroke-width="1"/>
  <line x1="600" y1="0" x2="600" y2="450" stroke="#ffffff08" stroke-width="1"/>
  <!-- CRM pipeline -->
  <rect x="195" y="115" width="90" height="220" rx="6" fill="#1e2433" stroke="#2AABEE30" stroke-width="1"/>
  <text x="240" y="135" text-anchor="middle" font-family="system-ui" font-size="10" font-weight="600" fill="#2AABEE80">NEW</text>
  <rect x="205" y="145" width="70" height="40" rx="4" fill="#2AABEE20" stroke="#2AABEE40" stroke-width="1"/>
  <rect x="205" y="193" width="70" height="40" rx="4" fill="#2AABEE15" stroke="#2AABEE30" stroke-width="1"/>
  <rect x="205" y="241" width="70" height="40" rx="4" fill="#2AABEE10" stroke="#2AABEE20" stroke-width="1"/>
  <rect x="300" y="115" width="90" height="220" rx="6" fill="#1e2433" stroke="#F59E0B30" stroke-width="1"/>
  <text x="345" y="135" text-anchor="middle" font-family="system-ui" font-size="10" font-weight="600" fill="#F59E0B80">QUAL.</text>
  <rect x="310" y="145" width="70" height="40" rx="4" fill="#F59E0B20" stroke="#F59E0B40" stroke-width="1"/>
  <rect x="310" y="193" width="70" height="40" rx="4" fill="#F59E0B15" stroke="#F59E0B30" stroke-width="1"/>
  <rect x="415" y="115" width="90" height="220" rx="6" fill="#1e2433" stroke="#10B98130" stroke-width="1"/>
  <text x="460" y="135" text-anchor="middle" font-family="system-ui" font-size="10" font-weight="600" fill="#10B98180">WON</text>
  <rect x="425" y="145" width="70" height="40" rx="4" fill="#10B98120" stroke="#10B98140" stroke-width="1"/>
  <!-- AI badge -->
  <rect x="520" y="115" width="90" height="220" rx="6" fill="#1e2433" stroke="#8B5CF630" stroke-width="1"/>
  <text x="565" y="135" text-anchor="middle" font-family="system-ui" font-size="10" font-weight="600" fill="#8B5CF680">AI SCORE</text>
  <text x="565" y="175" text-anchor="middle" font-family="system-ui" font-size="22" font-weight="700" fill="#10B981">87</text>
  <text x="565" y="192" text-anchor="middle" font-family="system-ui" font-size="9" fill="#10B98180">Hot Lead</text>
  <text x="565" y="225" text-anchor="middle" font-family="system-ui" font-size="22" font-weight="700" fill="#F59E0B">62</text>
  <text x="565" y="242" text-anchor="middle" font-family="system-ui" font-size="9" fill="#F59E0B80">Warm</text>
  <text x="565" y="275" text-anchor="middle" font-family="system-ui" font-size="22" font-weight="700" fill="#ffffff40">31</text>
  <text x="565" y="292" text-anchor="middle" font-family="system-ui" font-size="9" fill="#ffffff30">Cold</text>
  <text x="400" y="368" text-anchor="middle" font-family="system-ui, -apple-system, sans-serif" font-size="22" font-weight="700" fill="#ffffff">CRM Lead Qualification Bot</text>
  <text x="400" y="396" text-anchor="middle" font-family="system-ui, -apple-system, sans-serif" font-size="13" fill="#ffffff80">Telegram · Airtable · GPT-4</text>
</svg>
