<svg width="800" height="450" viewBox="0 0 800 450" xmlns="http://www.w3.org/2000/svg">
  <defs>
    <linearGradient id="bg" x1="0%" y1="0%" x2="100%" y2="100%">
      <stop offset="0%" style="stop-color:#0d1117"/>
      <stop offset="100%" style="stop-color:#1a2332"/>
    </linearGradient>
    <linearGradient id="accent" x1="0%" y1="0%" x2="100%" y2="100%">
      <stop offset="0%" style="stop-color:#10B981"/>
      <stop offset="100%" style="stop-color:#059669"/>
    </linearGradient>
  </defs>
  <rect width="800" height="450" fill="url(#bg)"/>
  <line x1="0" y1="112" x2="800" y2="112" stroke="#ffffff08" stroke-width="1"/>
  <line x1="0" y1="337" x2="800" y2="337" stroke="#ffffff08" stroke-width="1"/>
  <line x1="200" y1="0" x2="200" y2="450" stroke="#ffffff08" stroke-width="1"/>
  <line x1="600" y1="0" x2="600" y2="450" stroke="#ffffff08" stroke-width="1"/>
  <!-- Product cards -->
  <rect x="200" y="130" width="100" height="130" rx="8" fill="#1e2433" stroke="#10B98130" stroke-width="1"/>
  <rect x="210" y="140" width="80" height="70" rx="4" fill="#10B98115"/>
  <rect x="210" y="220" width="50" height="8" rx="2" fill="#ffffff40"/>
  <rect x="210" y="235" width="35" height="6" rx="2" fill="#10B98180"/>
  <rect x="315" y="115" width="100" height="130" rx="8" fill="#1e2433" stroke="#10B98145" stroke-width="1.5"/>
  <rect x="325" y="125" width="80" height="70" rx="4" fill="#10B98120"/>
  <rect x="325" y="205" width="50" height="8" rx="2" fill="#ffffff50"/>
  <rect x="325" y="220" width="35" height="6" rx="2" fill="#10B98190"/>
  <rect x="430" y="130" width="100" height="130" rx="8" fill="#1e2433" stroke="#10B98130" stroke-width="1"/>
  <rect x="440" y="140" width="80" height="70" rx="4" fill="#10B98115"/>
  <rect x="440" y="220" width="50" height="8" rx="2" fill="#ffffff40"/>
  <rect x="440" y="235" width="35" height="6" rx="2" fill="#10B98180"/>
  <!-- AI label -->
  <rect x="325" y="105" width="80" height="18" rx="9" fill="url(#accent)"/>
  <text x="365" y="118" text-anchor="middle" font-family="system-ui, -apple-system, sans-serif" font-size="10" font-weight="700" fill="white">✦ AI Pick</text>
  <text x="400" y="285" text-anchor="middle" font-family="system-ui, -apple-system, sans-serif" font-size="22" font-weight="700" fill="#ffffff">E-commerce AI Recommendations</text>
  <text x="400" y="315" text-anchor="middle" font-family="system-ui, -apple-system, sans-serif" font-size="13" fill="#ffffff80">Next.js · Stripe · OpenAI · PostgreSQL</text>
  <rect x="330" y="338" width="140" height="28" rx="14" fill="#10B98125" stroke="#05996960" stroke-width="1"/>
  <text x="400" y="357" text-anchor="middle" font-family="system-ui, -apple-system, sans-serif" font-size="12" font-weight="600" fill="#10B981">Website</text>
</svg>
