<svg width="800" height="450" viewBox="0 0 800 450" xmlns="http://www.w3.org/2000/svg">
  <defs>
    <linearGradient id="bg" x1="0%" y1="0%" x2="100%" y2="100%">
      <stop offset="0%" style="stop-color:#0d1117"/>
      <stop offset="100%" style="stop-color:#1a2332"/>
    </linearGradient>
    <linearGradient id="accent" x1="0%" y1="0%" x2="100%" y2="100%">
      <stop offset="0%" style="stop-color:#8B5CF6"/>
      <stop offset="100%" style="stop-color:#7C3AED"/>
    </linearGradient>
  </defs>
  <rect width="800" height="450" fill="url(#bg)"/>
  <line x1="0" y1="112" x2="800" y2="112" stroke="#ffffff08" stroke-width="1"/>
  <line x1="0" y1="337" x2="800" y2="337" stroke="#ffffff08" stroke-width="1"/>
  <line x1="200" y1="0" x2="200" y2="450" stroke="#ffffff08" stroke-width="1"/>
  <line x1="600" y1="0" x2="600" y2="450" stroke="#ffffff08" stroke-width="1"/>
  <!-- Portfolio mockup -->
  <rect x="190" y="110" width="420" height="250" rx="10" fill="#1e2433" stroke="#ffffff15" stroke-width="1"/>
  <!-- Header -->
  <rect x="190" y="110" width="420" height="55" rx="10" fill="url(#accent)" opacity="0.9"/>
  <rect x="190" y="143" width="420" height="22" fill="url(#accent)" opacity="0.9"/>
  <circle cx="230" cy="137" r="20" fill="#ffffff25" stroke="#ffffff40" stroke-width="1"/>
  <text x="230" y="142" text-anchor="middle" font-family="system-ui" font-size="14" fill="white">AB</text>
  <rect x="260" y="128" width="100" height="9" rx="3" fill="#ffffff80"/>
  <rect x="260" y="143" width="70" height="7" rx="2" fill="#ffffff40"/>
  <!-- Content blocks -->
  <rect x="210" y="178" width="380" height="10" rx="2" fill="#ffffff15"/>
  <rect x="210" y="196" width="340" height="8" rx="2" fill="#ffffff10"/>
  <rect x="210" y="211" width="300" height="8" rx="2" fill="#ffffff08"/>
  <!-- Project thumbnails -->
  <rect x="210" y="232" width="112" height="70" rx="6" fill="#8B5CF615" stroke="#8B5CF640" stroke-width="1"/>
  <rect x="334" y="232" width="112" height="70" rx="6" fill="#8B5CF615" stroke="#8B5CF440" stroke-width="1"/>
  <rect x="458" y="232" width="112" height="70" rx="6" fill="#8B5CF615" stroke="#8B5CF440" stroke-width="1"/>
  <!-- Sparkles -->
  <text x="266" y="272" text-anchor="middle" font-size="20" fill="#8B5CF680">✦</text>
  <text x="390" y="272" text-anchor="middle" font-size="20" fill="#8B5CF660">✦</text>
  <text x="514" y="272" text-anchor="middle" font-size="20" fill="#8B5CF640">✦</text>
  <text x="400" y="392" text-anchor="middle" font-family="system-ui, -apple-system, sans-serif" font-size="22" font-weight="700" fill="#ffffff">Freelancer Portfolio Generator</text>
  <text x="400" y="420" text-anchor="middle" font-family="system-ui, -apple-system, sans-serif" font-size="13" fill="#ffffff80">Next.js · OpenAI · Tailwind CSS</text>
</svg>
