<svg width="800" height="450" viewBox="0 0 800 450" xmlns="http://www.w3.org/2000/svg">
  <defs>
    <linearGradient id="bg" x1="0%" y1="0%" x2="100%" y2="100%">
      <stop offset="0%" style="stop-color:#0d1117"/>
      <stop offset="100%" style="stop-color:#1a2332"/>
    </linearGradient>
    <linearGradient id="accent" x1="0%" y1="0%" x2="100%" y2="100%">
      <stop offset="0%" style="stop-color:#2AABEE"/>
      <stop offset="100%" style="stop-color:#229ED9"/>
    </linearGradient>
  </defs>
  <rect width="800" height="450" fill="url(#bg)"/>
  <line x1="0" y1="112" x2="800" y2="112" stroke="#ffffff08" stroke-width="1"/>
  <line x1="0" y1="225" x2="800" y2="225" stroke="#ffffff08" stroke-width="1"/>
  <line x1="0" y1="337" x2="800" y2="337" stroke="#ffffff08" stroke-width="1"/>
  <line x1="200" y1="0" x2="200" y2="450" stroke="#ffffff08" stroke-width="1"/>
  <line x1="400" y1="0" x2="400" y2="450" stroke="#ffffff08" stroke-width="1"/>
  <line x1="600" y1="0" x2="600" y2="450" stroke="#ffffff08" stroke-width="1"/>
  <circle cx="400" cy="200" r="180" fill="#2AABEE15"/>
  <circle cx="400" cy="185" r="72" fill="#2AABEE20" stroke="#2AABEE40" stroke-width="1.5"/>
  <circle cx="400" cy="185" r="40" fill="url(#accent)"/>
  <path d="M383 195l-12-4 29-11c1-.4 2 .3 1.6 1.4l-5 24c-.3 1.3-2 1.7-2.8.6l-7-9-4 4z" fill="white"/>
  <path d="M389 196l12 10-1 8" fill="none" stroke="white" stroke-width="2"/>
  <text x="400" y="285" text-anchor="middle" font-family="system-ui, -apple-system, sans-serif" font-size="22" font-weight="700" fill="#ffffff">Telegram AI Assistant</text>
  <text x="400" y="315" text-anchor="middle" font-family="system-ui, -apple-system, sans-serif" font-size="13" fill="#ffffff80">Python · python-telegram-bot · OpenAI</text>
  <rect x="338" y="338" width="124" height="28" rx="14" fill="#2AABEE25" stroke="#2AABEE60" stroke-width="1"/>
  <text x="400" y="357" text-anchor="middle" font-family="system-ui, -apple-system, sans-serif" font-size="12" font-weight="600" fill="#2AABEE">Chatbot</text>
</svg>
