<svg width="800" height="450" viewBox="0 0 800 450" xmlns="http://www.w3.org/2000/svg">
  <defs>
    <linearGradient id="bg" x1="0%" y1="0%" x2="100%" y2="100%">
      <stop offset="0%" style="stop-color:#0d1117"/>
      <stop offset="100%" style="stop-color:#1a2332"/>
    </linearGradient>
    <linearGradient id="accent" x1="0%" y1="0%" x2="100%" y2="100%">
      <stop offset="0%" style="stop-color:#2AABEE"/>
      <stop offset="100%" style="stop-color:#229ED9"/>
    </linearGradient>
  </defs>
  <rect width="800" height="450" fill="url(#bg)"/>
  <line x1="0" y1="112" x2="800" y2="112" stroke="#ffffff08" stroke-width="1"/>
  <line x1="0" y1="225" x2="800" y2="225" stroke="#ffffff08" stroke-width="1"/>
  <line x1="0" y1="337" x2="800" y2="337" stroke="#ffffff08" stroke-width="1"/>
  <line x1="200" y1="0" x2="200" y2="450" stroke="#ffffff08" stroke-width="1"/>
  <line x1="400" y1="0" x2="400" y2="450" stroke="#ffffff08" stroke-width="1"/>
  <line x1="600" y1="0" x2="600" y2="450" stroke="#ffffff08" stroke-width="1"/>
  <!-- Glow -->
  <circle cx="400" cy="200" r="180" fill="#2AABEE15"/>
  <!-- Icon ring -->
  <circle cx="400" cy="185" r="72" fill="#2AABEE20" stroke="#2AABEE40" stroke-width="1.5"/>
  <!-- Icon circle -->
  <circle cx="400" cy="185" r="40" fill="url(#accent)"/>
  <!-- Telegram paper plane — centered at (400, 185) -->
  <g transform="translate(400, 185)">
    <!-- Main body: back-left → tip(upper-right) → tail(lower-right) -->
    <path d="M-24 8 L22 -18 L8 22 Z" fill="white"/>
    <!-- Wing fold highlight -->
    <path d="M8 22 L-2 4 L22 -18" fill="none" stroke="white" stroke-width="2.5" stroke-linejoin="round" opacity="0.55"/>
  </g>
  <!-- Title -->
  <text x="400" y="285" text-anchor="middle" font-family="system-ui, -apple-system, sans-serif" font-size="22" font-weight="700" fill="#ffffff">Telegram AI Assistant</text>
  <text x="400" y="315" text-anchor="middle" font-family="system-ui, -apple-system, sans-serif" font-size="13" fill="#ffffff80">Python · python-telegram-bot · OpenAI</text>
  <!-- Badge -->
  <rect x="338" y="338" width="124" height="28" rx="14" fill="#2AABEE25" stroke="#2AABEE60" stroke-width="1"/>
  <text x="400" y="357" text-anchor="middle" font-family="system-ui, -apple-system, sans-serif" font-size="12" font-weight="600" fill="#2AABEE">Chatbot</text>
</svg>
