<svg width="800" height="450" viewBox="0 0 800 450" xmlns="http://www.w3.org/2000/svg">
  <defs>
    <linearGradient id="bg" x1="0%" y1="0%" x2="100%" y2="100%">
      <stop offset="0%" style="stop-color:#0d1117"/>
      <stop offset="100%" style="stop-color:#1a2332"/>
    </linearGradient>
    <linearGradient id="accent" x1="0%" y1="0%" x2="100%" y2="0%">
      <stop offset="0%" style="stop-color:#25D366"/>
      <stop offset="100%" style="stop-color:#128C7E"/>
    </linearGradient>
  </defs>
  <rect width="800" height="450" fill="url(#bg)"/>
  <!-- Grid lines -->
  <line x1="0" y1="112" x2="800" y2="112" stroke="#ffffff08" stroke-width="1"/>
  <line x1="0" y1="225" x2="800" y2="225" stroke="#ffffff08" stroke-width="1"/>
  <line x1="0" y1="337" x2="800" y2="337" stroke="#ffffff08" stroke-width="1"/>
  <line x1="200" y1="0" x2="200" y2="450" stroke="#ffffff08" stroke-width="1"/>
  <line x1="400" y1="0" x2="400" y2="450" stroke="#ffffff08" stroke-width="1"/>
  <line x1="600" y1="0" x2="600" y2="450" stroke="#ffffff08" stroke-width="1"/>
  <!-- Glow circle -->
  <circle cx="400" cy="200" r="180" fill="#25D36615"/>
  <!-- Icon background -->
  <circle cx="400" cy="185" r="72" fill="#25D36620" stroke="#25D36640" stroke-width="1.5"/>
  <!-- WhatsApp icon -->
  <circle cx="400" cy="185" r="40" fill="url(#accent)"/>
  <path d="M419 166c-5.1-5.1-11.9-7.9-19.1-7.9-14.9 0-27 12.1-27 27 0 4.8 1.3 9.4 3.6 13.5l-3.8 13.9 14.2-3.7c3.9 2.1 8.4 3.3 13 3.3 14.9 0 27-12.1 27-27 0-7.2-2.8-14-7.9-19.1zm-19.1 41.5c-4 0-8-1.1-11.4-3.1l-.8-.5-8.4 2.2 2.2-8.2-.5-.9c-2.2-3.5-3.3-7.5-3.3-11.7 0-12.1 9.9-22 22-22 5.9 0 11.4 2.3 15.6 6.4 4.1 4.1 6.4 9.6 6.4 15.6-.1 12.1-9.9 22.2-21.8 22.2zm12.1-16.5c-.7-.3-3.9-1.9-4.5-2.1-.6-.2-1.1-.3-1.5.3-.5.7-1.8 2.1-2.2 2.6-.4.4-.8.5-1.5.2-4.1-2.1-6.8-3.7-9.5-8.4-.7-1.2.7-1.1 2-3.7.2-.4.1-.8-.1-1.1-.2-.3-1.5-3.6-2.1-5-.5-1.3-1.1-1.1-1.5-1.1-.4 0-.9-.1-1.3-.1s-1.2.2-1.8.8c-.6.6-2.4 2.3-2.4 5.7s2.4 6.6 2.8 7.1c.3.4 4.8 7.3 11.6 10.2 4.3 1.9 6 2.1 8.2 1.7 1.3-.2 4.1-1.7 4.7-3.3.6-1.6.6-3 .4-3.3-.2-.3-.7-.5-1.3-.8z" fill="white"/>
  <!-- Labels -->
  <text x="400" y="285" text-anchor="middle" font-family="system-ui, -apple-system, sans-serif" font-size="22" font-weight="700" fill="#ffffff">WhatsApp AI Support Bot</text>
  <text x="400" y="315" text-anchor="middle" font-family="system-ui, -apple-system, sans-serif" font-size="13" fill="#ffffff80">Python · GPT-4 · Twilio · FastAPI</text>
  <!-- Badge -->
  <rect x="338" y="338" width="124" height="28" rx="14" fill="#25D36625" stroke="#25D36660" stroke-width="1"/>
  <text x="400" y="357" text-anchor="middle" font-family="system-ui, -apple-system, sans-serif" font-size="12" font-weight="600" fill="#25D366">Chatbot</text>
</svg>
